%TF.GenerationSoftware,KiCad,Pcbnew,(5.1.6-0-10_14)*%
%TF.CreationDate,2020-11-29T14:34:25+01:00*%
%TF.ProjectId,ArduinoClone,41726475-696e-46f4-936c-6f6e652e6b69,v1.0*%
%TF.SameCoordinates,Original*%
%TF.FileFunction,Legend,Top*%
%TF.FilePolarity,Positive*%
%FSLAX46Y46*%
G04 Gerber Fmt 4.6, Leading zero omitted, Abs format (unit mm)*
G04 Created by KiCad (PCBNEW (5.1.6-0-10_14)) date 2020-11-29 14:34:25*
%MOMM*%
%LPD*%
G01*
G04 APERTURE LIST*
%ADD10C,0.120000*%
%ADD11C,0.150000*%
%ADD12C,0.100000*%
G04 APERTURE END LIST*
D10*
%TO.C,BT1*%
X110811000Y-127448000D02*
X110811000Y-130108000D01*
X113411000Y-127448000D02*
X110811000Y-127448000D01*
X113411000Y-130108000D02*
X110811000Y-130108000D01*
X113411000Y-127448000D02*
X113411000Y-130108000D01*
X114681000Y-127448000D02*
X116011000Y-127448000D01*
X116011000Y-127448000D02*
X116011000Y-128778000D01*
%TO.C,C1*%
X99366000Y-133333748D02*
X99366000Y-133856252D01*
X100786000Y-133333748D02*
X100786000Y-133856252D01*
%TO.C,C2*%
X99366000Y-138047252D02*
X99366000Y-137524748D01*
X100786000Y-138047252D02*
X100786000Y-137524748D01*
%TO.C,C3*%
X132223252Y-131012000D02*
X131700748Y-131012000D01*
X132223252Y-129592000D02*
X131700748Y-129592000D01*
%TO.C,D1*%
X123898000Y-145217000D02*
X121038000Y-145217000D01*
X123898000Y-147137000D02*
X123898000Y-145217000D01*
X121038000Y-147137000D02*
X123898000Y-147137000D01*
%TO.C,J1*%
X96079000Y-146050000D02*
X96079000Y-144720000D01*
X96079000Y-144720000D02*
X97409000Y-144720000D01*
X98679000Y-144720000D02*
X119059000Y-144720000D01*
X119059000Y-147380000D02*
X119059000Y-144720000D01*
X98679000Y-147380000D02*
X119059000Y-147380000D01*
X98679000Y-147380000D02*
X98679000Y-144720000D01*
%TO.C,J2*%
X97730000Y-128728000D02*
X97730000Y-127398000D01*
X97730000Y-127398000D02*
X99060000Y-127398000D01*
X100330000Y-127398000D02*
X108010000Y-127398000D01*
X108010000Y-130058000D02*
X108010000Y-127398000D01*
X100330000Y-130058000D02*
X108010000Y-130058000D01*
X100330000Y-130058000D02*
X100330000Y-127398000D01*
%TO.C,J3*%
X126238000Y-127448000D02*
X126238000Y-130108000D01*
X126238000Y-127448000D02*
X118558000Y-127448000D01*
X118558000Y-127448000D02*
X118558000Y-130108000D01*
X126238000Y-130108000D02*
X118558000Y-130108000D01*
X128838000Y-130108000D02*
X127508000Y-130108000D01*
X128838000Y-128778000D02*
X128838000Y-130108000D01*
%TO.C,J4*%
X93853000Y-141030000D02*
X92523000Y-141030000D01*
X92523000Y-141030000D02*
X92523000Y-139700000D01*
X95123000Y-141030000D02*
X95123000Y-138430000D01*
X95123000Y-138430000D02*
X92523000Y-138430000D01*
X92523000Y-138430000D02*
X92523000Y-133290000D01*
X97723000Y-133290000D02*
X92523000Y-133290000D01*
X97723000Y-141030000D02*
X97723000Y-133290000D01*
X97723000Y-141030000D02*
X95123000Y-141030000D01*
%TO.C,R1*%
X126348748Y-146887000D02*
X126871252Y-146887000D01*
X126348748Y-145467000D02*
X126871252Y-145467000D01*
%TO.C,R2*%
X101837748Y-140895000D02*
X102360252Y-140895000D01*
X101837748Y-142315000D02*
X102360252Y-142315000D01*
D11*
%TO.C,U1*%
X126829000Y-143725000D02*
X126829000Y-143520000D01*
X121329000Y-143725000D02*
X121329000Y-143425000D01*
X121329000Y-138215000D02*
X121329000Y-138515000D01*
X126829000Y-138215000D02*
X126829000Y-138515000D01*
X126829000Y-143725000D02*
X121329000Y-143725000D01*
X126829000Y-138215000D02*
X121329000Y-138215000D01*
X126829000Y-143520000D02*
X128579000Y-143520000D01*
%TO.C,U2*%
X126829000Y-137170000D02*
X128579000Y-137170000D01*
X126829000Y-131865000D02*
X121329000Y-131865000D01*
X126829000Y-137375000D02*
X121329000Y-137375000D01*
X126829000Y-131865000D02*
X126829000Y-132165000D01*
X121329000Y-131865000D02*
X121329000Y-132165000D01*
X121329000Y-137375000D02*
X121329000Y-137075000D01*
X126829000Y-137375000D02*
X126829000Y-137170000D01*
D10*
%TO.C,U3*%
X130504000Y-139539000D02*
X130504000Y-141229000D01*
X129759000Y-139539000D02*
X130504000Y-139539000D01*
X129759000Y-136779000D02*
X129759000Y-139539000D01*
X129759000Y-134019000D02*
X130504000Y-134019000D01*
X129759000Y-136779000D02*
X129759000Y-134019000D01*
X136179000Y-139539000D02*
X135434000Y-139539000D01*
X136179000Y-136779000D02*
X136179000Y-139539000D01*
X136179000Y-134019000D02*
X135434000Y-134019000D01*
X136179000Y-136779000D02*
X136179000Y-134019000D01*
D12*
%TO.C,U4*%
X108668000Y-140633000D02*
X108668000Y-140183000D01*
X108668000Y-140633000D02*
X109118000Y-140633000D01*
X115868000Y-140633000D02*
X115418000Y-140633000D01*
X115868000Y-140633000D02*
X115868000Y-140183000D01*
X115868000Y-133433000D02*
X115868000Y-133883000D01*
X115868000Y-133433000D02*
X115418000Y-133433000D01*
X108668000Y-133883000D02*
X107368000Y-133883000D01*
X108668000Y-133783000D02*
X108668000Y-133883000D01*
X109018000Y-133433000D02*
X108668000Y-133783000D01*
X109118000Y-133433000D02*
X109018000Y-133433000D01*
D10*
%TO.C,Y1*%
X134754000Y-144791000D02*
X134754000Y-142991000D01*
X132604000Y-142941000D02*
X131504000Y-142941000D01*
X132604000Y-144841000D02*
X131504000Y-144841000D01*
%TO.C,Y2*%
X101705000Y-132641000D02*
X101705000Y-138391000D01*
X105305000Y-132641000D02*
X101705000Y-132641000D01*
X105305000Y-138391000D02*
X105305000Y-132641000D01*
%TO.C,BT1*%
D11*
X109529571Y-129436714D02*
X109577190Y-129293857D01*
X109624809Y-129246238D01*
X109720047Y-129198619D01*
X109862904Y-129198619D01*
X109958142Y-129246238D01*
X110005761Y-129293857D01*
X110053380Y-129389095D01*
X110053380Y-129770047D01*
X109053380Y-129770047D01*
X109053380Y-129436714D01*
X109101000Y-129341476D01*
X109148619Y-129293857D01*
X109243857Y-129246238D01*
X109339095Y-129246238D01*
X109434333Y-129293857D01*
X109481952Y-129341476D01*
X109529571Y-129436714D01*
X109529571Y-129770047D01*
X109053380Y-128912904D02*
X109053380Y-128341476D01*
X110053380Y-128627190D02*
X109053380Y-128627190D01*
X110053380Y-127484333D02*
X110053380Y-128055761D01*
X110053380Y-127770047D02*
X109053380Y-127770047D01*
X109196238Y-127865285D01*
X109291476Y-127960523D01*
X109339095Y-128055761D01*
%TO.C,C1*%
X99036142Y-132246666D02*
X99083761Y-132294285D01*
X99131380Y-132437142D01*
X99131380Y-132532380D01*
X99083761Y-132675238D01*
X98988523Y-132770476D01*
X98893285Y-132818095D01*
X98702809Y-132865714D01*
X98559952Y-132865714D01*
X98369476Y-132818095D01*
X98274238Y-132770476D01*
X98179000Y-132675238D01*
X98131380Y-132532380D01*
X98131380Y-132437142D01*
X98179000Y-132294285D01*
X98226619Y-132246666D01*
X99131380Y-131294285D02*
X99131380Y-131865714D01*
X99131380Y-131580000D02*
X98131380Y-131580000D01*
X98274238Y-131675238D01*
X98369476Y-131770476D01*
X98417095Y-131865714D01*
%TO.C,C2*%
X99417142Y-140628666D02*
X99464761Y-140676285D01*
X99512380Y-140819142D01*
X99512380Y-140914380D01*
X99464761Y-141057238D01*
X99369523Y-141152476D01*
X99274285Y-141200095D01*
X99083809Y-141247714D01*
X98940952Y-141247714D01*
X98750476Y-141200095D01*
X98655238Y-141152476D01*
X98560000Y-141057238D01*
X98512380Y-140914380D01*
X98512380Y-140819142D01*
X98560000Y-140676285D01*
X98607619Y-140628666D01*
X98607619Y-140247714D02*
X98560000Y-140200095D01*
X98512380Y-140104857D01*
X98512380Y-139866761D01*
X98560000Y-139771523D01*
X98607619Y-139723904D01*
X98702857Y-139676285D01*
X98798095Y-139676285D01*
X98940952Y-139723904D01*
X99512380Y-140295333D01*
X99512380Y-139676285D01*
%TO.C,C3*%
X134580333Y-131040142D02*
X134532714Y-131087761D01*
X134389857Y-131135380D01*
X134294619Y-131135380D01*
X134151761Y-131087761D01*
X134056523Y-130992523D01*
X134008904Y-130897285D01*
X133961285Y-130706809D01*
X133961285Y-130563952D01*
X134008904Y-130373476D01*
X134056523Y-130278238D01*
X134151761Y-130183000D01*
X134294619Y-130135380D01*
X134389857Y-130135380D01*
X134532714Y-130183000D01*
X134580333Y-130230619D01*
X134913666Y-130135380D02*
X135532714Y-130135380D01*
X135199380Y-130516333D01*
X135342238Y-130516333D01*
X135437476Y-130563952D01*
X135485095Y-130611571D01*
X135532714Y-130706809D01*
X135532714Y-130944904D01*
X135485095Y-131040142D01*
X135437476Y-131087761D01*
X135342238Y-131135380D01*
X135056523Y-131135380D01*
X134961285Y-131087761D01*
X134913666Y-131040142D01*
%TO.C,D1*%
X119911904Y-145105380D02*
X119911904Y-144105380D01*
X120150000Y-144105380D01*
X120292857Y-144153000D01*
X120388095Y-144248238D01*
X120435714Y-144343476D01*
X120483333Y-144533952D01*
X120483333Y-144676809D01*
X120435714Y-144867285D01*
X120388095Y-144962523D01*
X120292857Y-145057761D01*
X120150000Y-145105380D01*
X119911904Y-145105380D01*
X121435714Y-145105380D02*
X120864285Y-145105380D01*
X121150000Y-145105380D02*
X121150000Y-144105380D01*
X121054761Y-144248238D01*
X120959523Y-144343476D01*
X120864285Y-144391095D01*
%TO.C,J1*%
X94091380Y-146383333D02*
X94805666Y-146383333D01*
X94948523Y-146430952D01*
X95043761Y-146526190D01*
X95091380Y-146669047D01*
X95091380Y-146764285D01*
X95091380Y-145383333D02*
X95091380Y-145954761D01*
X95091380Y-145669047D02*
X94091380Y-145669047D01*
X94234238Y-145764285D01*
X94329476Y-145859523D01*
X94377095Y-145954761D01*
%TO.C,J2*%
X95972380Y-129061333D02*
X96686666Y-129061333D01*
X96829523Y-129108952D01*
X96924761Y-129204190D01*
X96972380Y-129347047D01*
X96972380Y-129442285D01*
X96067619Y-128632761D02*
X96020000Y-128585142D01*
X95972380Y-128489904D01*
X95972380Y-128251809D01*
X96020000Y-128156571D01*
X96067619Y-128108952D01*
X96162857Y-128061333D01*
X96258095Y-128061333D01*
X96400952Y-128108952D01*
X96972380Y-128680380D01*
X96972380Y-128061333D01*
%TO.C,J3*%
X116927380Y-128857333D02*
X117641666Y-128857333D01*
X117784523Y-128904952D01*
X117879761Y-129000190D01*
X117927380Y-129143047D01*
X117927380Y-129238285D01*
X116927380Y-128476380D02*
X116927380Y-127857333D01*
X117308333Y-128190666D01*
X117308333Y-128047809D01*
X117355952Y-127952571D01*
X117403571Y-127904952D01*
X117498809Y-127857333D01*
X117736904Y-127857333D01*
X117832142Y-127904952D01*
X117879761Y-127952571D01*
X117927380Y-128047809D01*
X117927380Y-128333523D01*
X117879761Y-128428761D01*
X117832142Y-128476380D01*
%TO.C,J4*%
X93900666Y-131659380D02*
X93900666Y-132373666D01*
X93853047Y-132516523D01*
X93757809Y-132611761D01*
X93614952Y-132659380D01*
X93519714Y-132659380D01*
X94805428Y-131992714D02*
X94805428Y-132659380D01*
X94567333Y-131611761D02*
X94329238Y-132326047D01*
X94948285Y-132326047D01*
%TO.C,R1*%
X129246333Y-146756380D02*
X128913000Y-146280190D01*
X128674904Y-146756380D02*
X128674904Y-145756380D01*
X129055857Y-145756380D01*
X129151095Y-145804000D01*
X129198714Y-145851619D01*
X129246333Y-145946857D01*
X129246333Y-146089714D01*
X129198714Y-146184952D01*
X129151095Y-146232571D01*
X129055857Y-146280190D01*
X128674904Y-146280190D01*
X130198714Y-146756380D02*
X129627285Y-146756380D01*
X129913000Y-146756380D02*
X129913000Y-145756380D01*
X129817761Y-145899238D01*
X129722523Y-145994476D01*
X129627285Y-146042095D01*
%TO.C,R2*%
X104862333Y-142057380D02*
X104529000Y-141581190D01*
X104290904Y-142057380D02*
X104290904Y-141057380D01*
X104671857Y-141057380D01*
X104767095Y-141105000D01*
X104814714Y-141152619D01*
X104862333Y-141247857D01*
X104862333Y-141390714D01*
X104814714Y-141485952D01*
X104767095Y-141533571D01*
X104671857Y-141581190D01*
X104290904Y-141581190D01*
X105243285Y-141152619D02*
X105290904Y-141105000D01*
X105386142Y-141057380D01*
X105624238Y-141057380D01*
X105719476Y-141105000D01*
X105767095Y-141152619D01*
X105814714Y-141247857D01*
X105814714Y-141343095D01*
X105767095Y-141485952D01*
X105195666Y-142057380D01*
X105814714Y-142057380D01*
%TO.C,U1*%
X126873095Y-143978380D02*
X126873095Y-144787904D01*
X126920714Y-144883142D01*
X126968333Y-144930761D01*
X127063571Y-144978380D01*
X127254047Y-144978380D01*
X127349285Y-144930761D01*
X127396904Y-144883142D01*
X127444523Y-144787904D01*
X127444523Y-143978380D01*
X128444523Y-144978380D02*
X127873095Y-144978380D01*
X128158809Y-144978380D02*
X128158809Y-143978380D01*
X128063571Y-144121238D01*
X127968333Y-144216476D01*
X127873095Y-144264095D01*
%TO.C,U2*%
X119634095Y-130643380D02*
X119634095Y-131452904D01*
X119681714Y-131548142D01*
X119729333Y-131595761D01*
X119824571Y-131643380D01*
X120015047Y-131643380D01*
X120110285Y-131595761D01*
X120157904Y-131548142D01*
X120205523Y-131452904D01*
X120205523Y-130643380D01*
X120634095Y-130738619D02*
X120681714Y-130691000D01*
X120776952Y-130643380D01*
X121015047Y-130643380D01*
X121110285Y-130691000D01*
X121157904Y-130738619D01*
X121205523Y-130833857D01*
X121205523Y-130929095D01*
X121157904Y-131071952D01*
X120586476Y-131643380D01*
X121205523Y-131643380D01*
%TO.C,U3*%
X134747095Y-141565380D02*
X134747095Y-142374904D01*
X134794714Y-142470142D01*
X134842333Y-142517761D01*
X134937571Y-142565380D01*
X135128047Y-142565380D01*
X135223285Y-142517761D01*
X135270904Y-142470142D01*
X135318523Y-142374904D01*
X135318523Y-141565380D01*
X135699476Y-141565380D02*
X136318523Y-141565380D01*
X135985190Y-141946333D01*
X136128047Y-141946333D01*
X136223285Y-141993952D01*
X136270904Y-142041571D01*
X136318523Y-142136809D01*
X136318523Y-142374904D01*
X136270904Y-142470142D01*
X136223285Y-142517761D01*
X136128047Y-142565380D01*
X135842333Y-142565380D01*
X135747095Y-142517761D01*
X135699476Y-142470142D01*
%TO.C,U4*%
X107315095Y-130770380D02*
X107315095Y-131579904D01*
X107362714Y-131675142D01*
X107410333Y-131722761D01*
X107505571Y-131770380D01*
X107696047Y-131770380D01*
X107791285Y-131722761D01*
X107838904Y-131675142D01*
X107886523Y-131579904D01*
X107886523Y-130770380D01*
X108791285Y-131103714D02*
X108791285Y-131770380D01*
X108553190Y-130722761D02*
X108315095Y-131437047D01*
X108934142Y-131437047D01*
%TO.C,Y1*%
X131577809Y-145817190D02*
X131577809Y-146293380D01*
X131244476Y-145293380D02*
X131577809Y-145817190D01*
X131911142Y-145293380D01*
X132768285Y-146293380D02*
X132196857Y-146293380D01*
X132482571Y-146293380D02*
X132482571Y-145293380D01*
X132387333Y-145436238D01*
X132292095Y-145531476D01*
X132196857Y-145579095D01*
%TO.C,Y2*%
X106529190Y-136167190D02*
X107005380Y-136167190D01*
X106005380Y-136500523D02*
X106529190Y-136167190D01*
X106005380Y-135833857D01*
X106100619Y-135548142D02*
X106053000Y-135500523D01*
X106005380Y-135405285D01*
X106005380Y-135167190D01*
X106053000Y-135071952D01*
X106100619Y-135024333D01*
X106195857Y-134976714D01*
X106291095Y-134976714D01*
X106433952Y-135024333D01*
X107005380Y-135595761D01*
X107005380Y-134976714D01*
%TD*%
M02*
