M48
; DRILL file {KiCad (5.1.6-0-10_14)} date Sunday, November 29, 2020 at 02:34:30 PM
; FORMAT={2:4/ absolute / inch / suppress leading zeros}
; #@! TF.CreationDate,2020-11-29T14:34:30+01:00
; #@! TF.GenerationSoftware,Kicad,Pcbnew,(5.1.6-0-10_14)
; #@! TF.FileFunction,Plated,1,2,PTH
FMAT,2
INCH,TZ
T1C0.0157
T2C0.0236
T3C0.0394
%
G90
G05
T1
X42007Y-52848
X42197Y-52458
X43082Y-53163
X44846Y-55068
X45313Y-53163
X46840Y-52750
X47413Y-54380
X47643Y-57020
X47987Y-55154
X49517Y-56122
T2
X48956Y-52396
T3
X44150Y-50700
X45150Y-50700
X39000Y-50680
X40000Y-50680
X41000Y-50680
X42000Y-50680
X47200Y-50700
X48200Y-50700
X49200Y-50700
X50200Y-50700
X38350Y-57500
X39350Y-57500
X40350Y-57500
X41350Y-57500
X42350Y-57500
X43350Y-57500
X44350Y-57500
X45350Y-57500
X46350Y-57500
X36950Y-53000
X36950Y-54000
X36950Y-55000
X37950Y-53000
X37950Y-54000
X37950Y-55000
T0
M30
