%TF.GenerationSoftware,KiCad,Pcbnew,(5.1.6-0-10_14)*%
%TF.CreationDate,2020-11-29T14:34:25+01:00*%
%TF.ProjectId,ArduinoClone,41726475-696e-46f4-936c-6f6e652e6b69,v1.0*%
%TF.SameCoordinates,Original*%
%TF.FileFunction,Copper,L1,Top*%
%TF.FilePolarity,Positive*%
%FSLAX46Y46*%
G04 Gerber Fmt 4.6, Leading zero omitted, Abs format (unit mm)*
G04 Created by KiCad (PCBNEW (5.1.6-0-10_14)) date 2020-11-29 14:34:25*
%MOMM*%
%LPD*%
G01*
G04 APERTURE LIST*
%TA.AperFunction,ComponentPad*%
%ADD10O,1.700000X1.700000*%
%TD*%
%TA.AperFunction,ComponentPad*%
%ADD11R,1.700000X1.700000*%
%TD*%
%TA.AperFunction,SMDPad,CuDef*%
%ADD12R,1.700000X0.650000*%
%TD*%
%TA.AperFunction,SMDPad,CuDef*%
%ADD13R,0.550000X1.500000*%
%TD*%
%TA.AperFunction,SMDPad,CuDef*%
%ADD14R,1.500000X0.550000*%
%TD*%
%TA.AperFunction,SMDPad,CuDef*%
%ADD15R,1.750000X1.800000*%
%TD*%
%TA.AperFunction,SMDPad,CuDef*%
%ADD16R,2.400000X2.000000*%
%TD*%
%TA.AperFunction,ViaPad*%
%ADD17C,1.000000*%
%TD*%
%TA.AperFunction,ViaPad*%
%ADD18C,0.800000*%
%TD*%
%TA.AperFunction,Conductor*%
%ADD19C,0.300000*%
%TD*%
%TA.AperFunction,Conductor*%
%ADD20C,0.250000*%
%TD*%
G04 APERTURE END LIST*
D10*
%TO.P,BT1,2*%
%TO.N,GNDPWR*%
X112141000Y-128778000D03*
D11*
%TO.P,BT1,1*%
%TO.N,/Vcc*%
X114681000Y-128778000D03*
%TD*%
%TO.P,C1,1*%
%TO.N,Net-(C1-Pad1)*%
%TA.AperFunction,SMDPad,CuDef*%
G36*
G01*
X99625999Y-131995000D02*
X100526001Y-131995000D01*
G75*
G02*
X100776000Y-132244999I0J-249999D01*
G01*
X100776000Y-132895001D01*
G75*
G02*
X100526001Y-133145000I-249999J0D01*
G01*
X99625999Y-133145000D01*
G75*
G02*
X99376000Y-132895001I0J249999D01*
G01*
X99376000Y-132244999D01*
G75*
G02*
X99625999Y-131995000I249999J0D01*
G01*
G37*
%TD.AperFunction*%
%TO.P,C1,2*%
%TO.N,GNDPWR*%
%TA.AperFunction,SMDPad,CuDef*%
G36*
G01*
X99625999Y-134045000D02*
X100526001Y-134045000D01*
G75*
G02*
X100776000Y-134294999I0J-249999D01*
G01*
X100776000Y-134945001D01*
G75*
G02*
X100526001Y-135195000I-249999J0D01*
G01*
X99625999Y-135195000D01*
G75*
G02*
X99376000Y-134945001I0J249999D01*
G01*
X99376000Y-134294999D01*
G75*
G02*
X99625999Y-134045000I249999J0D01*
G01*
G37*
%TD.AperFunction*%
%TD*%
%TO.P,C2,2*%
%TO.N,GNDPWR*%
%TA.AperFunction,SMDPad,CuDef*%
G36*
G01*
X100526001Y-137336000D02*
X99625999Y-137336000D01*
G75*
G02*
X99376000Y-137086001I0J249999D01*
G01*
X99376000Y-136435999D01*
G75*
G02*
X99625999Y-136186000I249999J0D01*
G01*
X100526001Y-136186000D01*
G75*
G02*
X100776000Y-136435999I0J-249999D01*
G01*
X100776000Y-137086001D01*
G75*
G02*
X100526001Y-137336000I-249999J0D01*
G01*
G37*
%TD.AperFunction*%
%TO.P,C2,1*%
%TO.N,Net-(C2-Pad1)*%
%TA.AperFunction,SMDPad,CuDef*%
G36*
G01*
X100526001Y-139386000D02*
X99625999Y-139386000D01*
G75*
G02*
X99376000Y-139136001I0J249999D01*
G01*
X99376000Y-138485999D01*
G75*
G02*
X99625999Y-138236000I249999J0D01*
G01*
X100526001Y-138236000D01*
G75*
G02*
X100776000Y-138485999I0J-249999D01*
G01*
X100776000Y-139136001D01*
G75*
G02*
X100526001Y-139386000I-249999J0D01*
G01*
G37*
%TD.AperFunction*%
%TD*%
%TO.P,C3,2*%
%TO.N,GNDPWR*%
%TA.AperFunction,SMDPad,CuDef*%
G36*
G01*
X131512000Y-129851999D02*
X131512000Y-130752001D01*
G75*
G02*
X131262001Y-131002000I-249999J0D01*
G01*
X130611999Y-131002000D01*
G75*
G02*
X130362000Y-130752001I0J249999D01*
G01*
X130362000Y-129851999D01*
G75*
G02*
X130611999Y-129602000I249999J0D01*
G01*
X131262001Y-129602000D01*
G75*
G02*
X131512000Y-129851999I0J-249999D01*
G01*
G37*
%TD.AperFunction*%
%TO.P,C3,1*%
%TO.N,/Vcc*%
%TA.AperFunction,SMDPad,CuDef*%
G36*
G01*
X133562000Y-129851999D02*
X133562000Y-130752001D01*
G75*
G02*
X133312001Y-131002000I-249999J0D01*
G01*
X132661999Y-131002000D01*
G75*
G02*
X132412000Y-130752001I0J249999D01*
G01*
X132412000Y-129851999D01*
G75*
G02*
X132661999Y-129602000I249999J0D01*
G01*
X133312001Y-129602000D01*
G75*
G02*
X133562000Y-129851999I0J-249999D01*
G01*
G37*
%TD.AperFunction*%
%TD*%
%TO.P,D1,1*%
%TO.N,Net-(D1-Pad1)*%
%TA.AperFunction,SMDPad,CuDef*%
G36*
G01*
X123638000Y-145726999D02*
X123638000Y-146627001D01*
G75*
G02*
X123388001Y-146877000I-249999J0D01*
G01*
X122737999Y-146877000D01*
G75*
G02*
X122488000Y-146627001I0J249999D01*
G01*
X122488000Y-145726999D01*
G75*
G02*
X122737999Y-145477000I249999J0D01*
G01*
X123388001Y-145477000D01*
G75*
G02*
X123638000Y-145726999I0J-249999D01*
G01*
G37*
%TD.AperFunction*%
%TO.P,D1,2*%
%TO.N,/SCK*%
%TA.AperFunction,SMDPad,CuDef*%
G36*
G01*
X121588000Y-145726999D02*
X121588000Y-146627001D01*
G75*
G02*
X121338001Y-146877000I-249999J0D01*
G01*
X120687999Y-146877000D01*
G75*
G02*
X120438000Y-146627001I0J249999D01*
G01*
X120438000Y-145726999D01*
G75*
G02*
X120687999Y-145477000I249999J0D01*
G01*
X121338001Y-145477000D01*
G75*
G02*
X121588000Y-145726999I0J-249999D01*
G01*
G37*
%TD.AperFunction*%
%TD*%
%TO.P,J1,1*%
%TO.N,/D2*%
X97409000Y-146050000D03*
D10*
%TO.P,J1,2*%
%TO.N,/D3*%
X99949000Y-146050000D03*
%TO.P,J1,3*%
%TO.N,/D4*%
X102489000Y-146050000D03*
%TO.P,J1,4*%
%TO.N,/D5*%
X105029000Y-146050000D03*
%TO.P,J1,5*%
%TO.N,/D6*%
X107569000Y-146050000D03*
%TO.P,J1,6*%
%TO.N,/D7*%
X110109000Y-146050000D03*
%TO.P,J1,7*%
%TO.N,/D8*%
X112649000Y-146050000D03*
%TO.P,J1,8*%
%TO.N,GNDPWR*%
X115189000Y-146050000D03*
%TO.P,J1,9*%
%TO.N,/Vcc*%
X117729000Y-146050000D03*
%TD*%
D11*
%TO.P,J2,1*%
%TO.N,GNDPWR*%
X99060000Y-128728000D03*
D10*
%TO.P,J2,2*%
%TO.N,/Vcc*%
X101600000Y-128728000D03*
%TO.P,J2,3*%
%TO.N,/RX*%
X104140000Y-128728000D03*
%TO.P,J2,4*%
%TO.N,/TX*%
X106680000Y-128728000D03*
%TD*%
%TO.P,J3,4*%
%TO.N,/SCK*%
X119888000Y-128778000D03*
%TO.P,J3,3*%
%TO.N,/SDA*%
X122428000Y-128778000D03*
%TO.P,J3,2*%
%TO.N,/Vcc*%
X124968000Y-128778000D03*
D11*
%TO.P,J3,1*%
%TO.N,GNDPWR*%
X127508000Y-128778000D03*
%TD*%
%TO.P,J4,1*%
%TO.N,/MISO*%
X93853000Y-139700000D03*
D10*
%TO.P,J4,2*%
%TO.N,/Vcc*%
X96393000Y-139700000D03*
%TO.P,J4,3*%
%TO.N,/SCK*%
X93853000Y-137160000D03*
%TO.P,J4,4*%
%TO.N,/MOSI*%
X96393000Y-137160000D03*
%TO.P,J4,5*%
%TO.N,/RESET*%
X93853000Y-134620000D03*
%TO.P,J4,6*%
%TO.N,GNDPWR*%
X96393000Y-134620000D03*
%TD*%
%TO.P,R1,1*%
%TO.N,Net-(D1-Pad1)*%
%TA.AperFunction,SMDPad,CuDef*%
G36*
G01*
X125010000Y-146627001D02*
X125010000Y-145726999D01*
G75*
G02*
X125259999Y-145477000I249999J0D01*
G01*
X125910001Y-145477000D01*
G75*
G02*
X126160000Y-145726999I0J-249999D01*
G01*
X126160000Y-146627001D01*
G75*
G02*
X125910001Y-146877000I-249999J0D01*
G01*
X125259999Y-146877000D01*
G75*
G02*
X125010000Y-146627001I0J249999D01*
G01*
G37*
%TD.AperFunction*%
%TO.P,R1,2*%
%TO.N,GNDPWR*%
%TA.AperFunction,SMDPad,CuDef*%
G36*
G01*
X127060000Y-146627001D02*
X127060000Y-145726999D01*
G75*
G02*
X127309999Y-145477000I249999J0D01*
G01*
X127960001Y-145477000D01*
G75*
G02*
X128210000Y-145726999I0J-249999D01*
G01*
X128210000Y-146627001D01*
G75*
G02*
X127960001Y-146877000I-249999J0D01*
G01*
X127309999Y-146877000D01*
G75*
G02*
X127060000Y-146627001I0J249999D01*
G01*
G37*
%TD.AperFunction*%
%TD*%
%TO.P,R2,2*%
%TO.N,/Vcc*%
%TA.AperFunction,SMDPad,CuDef*%
G36*
G01*
X102549000Y-142055001D02*
X102549000Y-141154999D01*
G75*
G02*
X102798999Y-140905000I249999J0D01*
G01*
X103449001Y-140905000D01*
G75*
G02*
X103699000Y-141154999I0J-249999D01*
G01*
X103699000Y-142055001D01*
G75*
G02*
X103449001Y-142305000I-249999J0D01*
G01*
X102798999Y-142305000D01*
G75*
G02*
X102549000Y-142055001I0J249999D01*
G01*
G37*
%TD.AperFunction*%
%TO.P,R2,1*%
%TO.N,/RESET*%
%TA.AperFunction,SMDPad,CuDef*%
G36*
G01*
X100499000Y-142055001D02*
X100499000Y-141154999D01*
G75*
G02*
X100748999Y-140905000I249999J0D01*
G01*
X101399001Y-140905000D01*
G75*
G02*
X101649000Y-141154999I0J-249999D01*
G01*
X101649000Y-142055001D01*
G75*
G02*
X101399001Y-142305000I-249999J0D01*
G01*
X100748999Y-142305000D01*
G75*
G02*
X100499000Y-142055001I0J249999D01*
G01*
G37*
%TD.AperFunction*%
%TD*%
D12*
%TO.P,U1,8*%
%TO.N,/Vcc*%
X120429000Y-142875000D03*
%TO.P,U1,7*%
%TO.N,GNDPWR*%
X120429000Y-141605000D03*
%TO.P,U1,6*%
%TO.N,/SCK*%
X120429000Y-140335000D03*
%TO.P,U1,5*%
%TO.N,/SDA*%
X120429000Y-139065000D03*
%TO.P,U1,4*%
%TO.N,GNDPWR*%
X127729000Y-139065000D03*
%TO.P,U1,3*%
%TO.N,/Vcc*%
X127729000Y-140335000D03*
%TO.P,U1,2*%
%TO.N,/ADDS2*%
X127729000Y-141605000D03*
%TO.P,U1,1*%
%TO.N,/ADDS1*%
X127729000Y-142875000D03*
%TD*%
%TO.P,U2,1*%
%TO.N,/ADDS1*%
X127729000Y-136525000D03*
%TO.P,U2,2*%
%TO.N,/ADDS2*%
X127729000Y-135255000D03*
%TO.P,U2,3*%
%TO.N,/Vcc*%
X127729000Y-133985000D03*
%TO.P,U2,4*%
%TO.N,GNDPWR*%
X127729000Y-132715000D03*
%TO.P,U2,5*%
%TO.N,/SDA*%
X120429000Y-132715000D03*
%TO.P,U2,6*%
%TO.N,/SCK*%
X120429000Y-133985000D03*
%TO.P,U2,7*%
%TO.N,GNDPWR*%
X120429000Y-135255000D03*
%TO.P,U2,8*%
%TO.N,/Vcc*%
X120429000Y-136525000D03*
%TD*%
%TO.P,U3,1*%
%TO.N,Net-(U3-Pad1)*%
%TA.AperFunction,SMDPad,CuDef*%
G36*
G01*
X131214000Y-141229000D02*
X130914000Y-141229000D01*
G75*
G02*
X130764000Y-141079000I0J150000D01*
G01*
X130764000Y-139479000D01*
G75*
G02*
X130914000Y-139329000I150000J0D01*
G01*
X131214000Y-139329000D01*
G75*
G02*
X131364000Y-139479000I0J-150000D01*
G01*
X131364000Y-141079000D01*
G75*
G02*
X131214000Y-141229000I-150000J0D01*
G01*
G37*
%TD.AperFunction*%
%TO.P,U3,2*%
%TO.N,Net-(U3-Pad2)*%
%TA.AperFunction,SMDPad,CuDef*%
G36*
G01*
X132484000Y-141229000D02*
X132184000Y-141229000D01*
G75*
G02*
X132034000Y-141079000I0J150000D01*
G01*
X132034000Y-139479000D01*
G75*
G02*
X132184000Y-139329000I150000J0D01*
G01*
X132484000Y-139329000D01*
G75*
G02*
X132634000Y-139479000I0J-150000D01*
G01*
X132634000Y-141079000D01*
G75*
G02*
X132484000Y-141229000I-150000J0D01*
G01*
G37*
%TD.AperFunction*%
%TO.P,U3,3*%
%TO.N,/Vcc*%
%TA.AperFunction,SMDPad,CuDef*%
G36*
G01*
X133754000Y-141229000D02*
X133454000Y-141229000D01*
G75*
G02*
X133304000Y-141079000I0J150000D01*
G01*
X133304000Y-139479000D01*
G75*
G02*
X133454000Y-139329000I150000J0D01*
G01*
X133754000Y-139329000D01*
G75*
G02*
X133904000Y-139479000I0J-150000D01*
G01*
X133904000Y-141079000D01*
G75*
G02*
X133754000Y-141229000I-150000J0D01*
G01*
G37*
%TD.AperFunction*%
%TO.P,U3,4*%
%TO.N,GNDPWR*%
%TA.AperFunction,SMDPad,CuDef*%
G36*
G01*
X135024000Y-141229000D02*
X134724000Y-141229000D01*
G75*
G02*
X134574000Y-141079000I0J150000D01*
G01*
X134574000Y-139479000D01*
G75*
G02*
X134724000Y-139329000I150000J0D01*
G01*
X135024000Y-139329000D01*
G75*
G02*
X135174000Y-139479000I0J-150000D01*
G01*
X135174000Y-141079000D01*
G75*
G02*
X135024000Y-141229000I-150000J0D01*
G01*
G37*
%TD.AperFunction*%
%TO.P,U3,5*%
%TO.N,/SDA*%
%TA.AperFunction,SMDPad,CuDef*%
G36*
G01*
X135024000Y-134229000D02*
X134724000Y-134229000D01*
G75*
G02*
X134574000Y-134079000I0J150000D01*
G01*
X134574000Y-132479000D01*
G75*
G02*
X134724000Y-132329000I150000J0D01*
G01*
X135024000Y-132329000D01*
G75*
G02*
X135174000Y-132479000I0J-150000D01*
G01*
X135174000Y-134079000D01*
G75*
G02*
X135024000Y-134229000I-150000J0D01*
G01*
G37*
%TD.AperFunction*%
%TO.P,U3,6*%
%TO.N,/SCK*%
%TA.AperFunction,SMDPad,CuDef*%
G36*
G01*
X133754000Y-134229000D02*
X133454000Y-134229000D01*
G75*
G02*
X133304000Y-134079000I0J150000D01*
G01*
X133304000Y-132479000D01*
G75*
G02*
X133454000Y-132329000I150000J0D01*
G01*
X133754000Y-132329000D01*
G75*
G02*
X133904000Y-132479000I0J-150000D01*
G01*
X133904000Y-134079000D01*
G75*
G02*
X133754000Y-134229000I-150000J0D01*
G01*
G37*
%TD.AperFunction*%
%TO.P,U3,7*%
%TO.N,Net-(U3-Pad7)*%
%TA.AperFunction,SMDPad,CuDef*%
G36*
G01*
X132484000Y-134229000D02*
X132184000Y-134229000D01*
G75*
G02*
X132034000Y-134079000I0J150000D01*
G01*
X132034000Y-132479000D01*
G75*
G02*
X132184000Y-132329000I150000J0D01*
G01*
X132484000Y-132329000D01*
G75*
G02*
X132634000Y-132479000I0J-150000D01*
G01*
X132634000Y-134079000D01*
G75*
G02*
X132484000Y-134229000I-150000J0D01*
G01*
G37*
%TD.AperFunction*%
%TO.P,U3,8*%
%TO.N,/Vcc*%
%TA.AperFunction,SMDPad,CuDef*%
G36*
G01*
X131214000Y-134229000D02*
X130914000Y-134229000D01*
G75*
G02*
X130764000Y-134079000I0J150000D01*
G01*
X130764000Y-132479000D01*
G75*
G02*
X130914000Y-132329000I150000J0D01*
G01*
X131214000Y-132329000D01*
G75*
G02*
X131364000Y-132479000I0J-150000D01*
G01*
X131364000Y-134079000D01*
G75*
G02*
X131214000Y-134229000I-150000J0D01*
G01*
G37*
%TD.AperFunction*%
%TD*%
D13*
%TO.P,U4,9*%
%TO.N,/D5*%
X109468000Y-141233000D03*
D14*
%TO.P,U4,1*%
%TO.N,/D3*%
X108068000Y-134233000D03*
%TO.P,U4,2*%
%TO.N,/D4*%
X108068000Y-135033000D03*
%TO.P,U4,3*%
%TO.N,GNDPWR*%
X108068000Y-135833000D03*
%TO.P,U4,4*%
%TO.N,/Vcc*%
X108068000Y-136633000D03*
%TO.P,U4,5*%
%TO.N,GNDPWR*%
X108068000Y-137433000D03*
%TO.P,U4,6*%
%TO.N,/Vcc*%
X108068000Y-138233000D03*
%TO.P,U4,7*%
%TO.N,Net-(C1-Pad1)*%
X108068000Y-139033000D03*
%TO.P,U4,8*%
%TO.N,Net-(C2-Pad1)*%
X108068000Y-139833000D03*
D13*
%TO.P,U4,10*%
%TO.N,/D6*%
X110268000Y-141233000D03*
%TO.P,U4,11*%
%TO.N,/D7*%
X111068000Y-141233000D03*
%TO.P,U4,12*%
%TO.N,/D8*%
X111868000Y-141233000D03*
%TO.P,U4,13*%
%TO.N,Net-(U4-Pad13)*%
X112668000Y-141233000D03*
%TO.P,U4,14*%
%TO.N,Net-(U4-Pad14)*%
X113468000Y-141233000D03*
%TO.P,U4,15*%
%TO.N,/MOSI*%
X114268000Y-141233000D03*
%TO.P,U4,16*%
%TO.N,/MISO*%
X115068000Y-141233000D03*
D14*
%TO.P,U4,17*%
%TO.N,Net-(U4-Pad17)*%
X116468000Y-139833000D03*
%TO.P,U4,18*%
%TO.N,/Vcc*%
X116468000Y-139033000D03*
%TO.P,U4,19*%
%TO.N,Net-(U4-Pad19)*%
X116468000Y-138233000D03*
%TO.P,U4,20*%
%TO.N,Net-(U4-Pad20)*%
X116468000Y-137433000D03*
%TO.P,U4,21*%
%TO.N,GNDPWR*%
X116468000Y-136633000D03*
%TO.P,U4,22*%
%TO.N,Net-(U4-Pad22)*%
X116468000Y-135833000D03*
%TO.P,U4,23*%
%TO.N,/ADDS1*%
X116468000Y-135033000D03*
%TO.P,U4,24*%
%TO.N,/ADDS2*%
X116468000Y-134233000D03*
D13*
%TO.P,U4,25*%
%TO.N,Net-(U4-Pad25)*%
X115068000Y-132833000D03*
%TO.P,U4,26*%
%TO.N,Net-(U4-Pad26)*%
X114268000Y-132833000D03*
%TO.P,U4,27*%
%TO.N,/SDA*%
X113468000Y-132833000D03*
%TO.P,U4,28*%
%TO.N,/SCK*%
X112668000Y-132833000D03*
%TO.P,U4,29*%
%TO.N,/RESET*%
X111868000Y-132833000D03*
%TO.P,U4,30*%
%TO.N,/RX*%
X111068000Y-132833000D03*
%TO.P,U4,31*%
%TO.N,/TX*%
X110268000Y-132833000D03*
%TO.P,U4,32*%
%TO.N,/D2*%
X109468000Y-132833000D03*
%TD*%
D15*
%TO.P,Y1,1*%
%TO.N,Net-(U3-Pad2)*%
X133679000Y-143891000D03*
%TO.P,Y1,2*%
%TO.N,Net-(U3-Pad1)*%
X130429000Y-143891000D03*
%TD*%
D16*
%TO.P,Y2,1*%
%TO.N,Net-(C1-Pad1)*%
X103505000Y-133841000D03*
%TO.P,Y2,2*%
%TO.N,Net-(C2-Pad1)*%
X103505000Y-137541000D03*
%TD*%
D17*
%TO.N,GNDPWR*%
X124349100Y-133085300D03*
D18*
%TO.N,/SCK*%
X121886800Y-140092200D03*
X118972600Y-133985000D03*
X121013000Y-144830100D03*
%TO.N,/D2*%
X107181500Y-133244200D03*
%TO.N,/D3*%
X106698600Y-134233000D03*
%TO.N,/D4*%
X109428500Y-135033000D03*
%TO.N,/SDA*%
X120429000Y-138124700D03*
%TO.N,/MOSI*%
X113908600Y-139873600D03*
%TO.N,/ADDS1*%
X115095900Y-135033000D03*
X125774000Y-142549900D03*
%TD*%
D19*
%TO.N,/Vcc*%
X109168300Y-136633000D02*
X109168300Y-138233000D01*
X108068000Y-136633000D02*
X109168300Y-136633000D01*
X108068000Y-138233000D02*
X109168300Y-138233000D01*
X102026200Y-142702800D02*
X103124000Y-141605000D01*
X100521100Y-142702800D02*
X102026200Y-142702800D01*
X97593300Y-139775000D02*
X100521100Y-142702800D01*
X97593300Y-139700000D02*
X97593300Y-139775000D01*
X96393000Y-139700000D02*
X97593300Y-139700000D01*
X96019900Y-138499700D02*
X96393000Y-138499700D01*
X95053400Y-137533200D02*
X96019900Y-138499700D01*
X95053400Y-136613200D02*
X95053400Y-137533200D01*
X94345200Y-135905000D02*
X95053400Y-136613200D01*
X93397700Y-135905000D02*
X94345200Y-135905000D01*
X92644900Y-135152200D02*
X93397700Y-135905000D01*
X92644900Y-134123800D02*
X92644900Y-135152200D01*
X96840400Y-129928300D02*
X92644900Y-134123800D01*
X100099700Y-129928300D02*
X96840400Y-129928300D01*
X100399700Y-129628300D02*
X100099700Y-129928300D01*
X100399700Y-128728000D02*
X100399700Y-129628300D01*
X101600000Y-128728000D02*
X100399700Y-128728000D01*
X96393000Y-139700000D02*
X96393000Y-138499700D01*
X124968000Y-128778000D02*
X126168300Y-128778000D01*
X126168300Y-127841300D02*
X126168300Y-128778000D01*
X126432000Y-127577600D02*
X126168300Y-127841300D01*
X130262600Y-127577600D02*
X126432000Y-127577600D01*
X132987000Y-130302000D02*
X130262600Y-127577600D01*
X123767700Y-128405000D02*
X123767700Y-128778000D01*
X122940300Y-127577600D02*
X123767700Y-128405000D01*
X117081700Y-127577600D02*
X122940300Y-127577600D01*
X115881300Y-128778000D02*
X117081700Y-127577600D01*
X114681000Y-128778000D02*
X115881300Y-128778000D01*
X124968000Y-128778000D02*
X123767700Y-128778000D01*
X125437300Y-133985000D02*
X127729000Y-133985000D01*
X122897300Y-136525000D02*
X125437300Y-133985000D01*
X120429000Y-136525000D02*
X122897300Y-136525000D01*
X127729000Y-140335000D02*
X126528700Y-140335000D01*
X127729000Y-133985000D02*
X128929300Y-133985000D01*
X131064000Y-133985000D02*
X128929300Y-133985000D01*
X131064000Y-133985000D02*
X131064000Y-133279000D01*
X120429000Y-142875000D02*
X119782800Y-142875000D01*
X117808100Y-144849700D02*
X117729000Y-144849700D01*
X119782800Y-142875000D02*
X117808100Y-144849700D01*
X117729000Y-146050000D02*
X117729000Y-144849700D01*
X109968300Y-139033000D02*
X116468000Y-139033000D01*
X109168300Y-138233000D02*
X109968300Y-139033000D01*
X117568300Y-140660500D02*
X119782800Y-142875000D01*
X117568300Y-139033000D02*
X117568300Y-140660500D01*
X116468000Y-139033000D02*
X117568300Y-139033000D01*
X133604000Y-139847300D02*
X133604000Y-140279000D01*
X132734700Y-138978000D02*
X133604000Y-139847300D01*
X132734700Y-134596300D02*
X132734700Y-138978000D01*
X135236500Y-134596300D02*
X132734700Y-134596300D01*
X135530200Y-134302600D02*
X135236500Y-134596300D01*
X135530200Y-132201900D02*
X135530200Y-134302600D01*
X133630300Y-130302000D02*
X135530200Y-132201900D01*
X132987000Y-130302000D02*
X133630300Y-130302000D01*
X131675300Y-134596300D02*
X131064000Y-133985000D01*
X132734700Y-134596300D02*
X131675300Y-134596300D01*
X125023700Y-141840000D02*
X125023700Y-142875000D01*
X126528700Y-140335000D02*
X125023700Y-141840000D01*
X125699100Y-143550400D02*
X125023700Y-142875000D01*
X128764600Y-143550400D02*
X125699100Y-143550400D01*
X129052600Y-143262400D02*
X128764600Y-143550400D01*
X129052600Y-142918000D02*
X129052600Y-143262400D01*
X130298800Y-141671800D02*
X129052600Y-142918000D01*
X130298800Y-139331900D02*
X130298800Y-141671800D01*
X130652700Y-138978000D02*
X130298800Y-139331900D01*
X132734700Y-138978000D02*
X130652700Y-138978000D01*
X125023700Y-142875000D02*
X120429000Y-142875000D01*
%TO.N,GNDPWR*%
X108395000Y-135833000D02*
X109168300Y-135833000D01*
X109968300Y-136633000D02*
X116468000Y-136633000D01*
X109168300Y-135833000D02*
X109968300Y-136633000D01*
X120429000Y-141605000D02*
X119228700Y-141605000D01*
X100076000Y-134620000D02*
X100076000Y-136761000D01*
X124169300Y-139065000D02*
X127729000Y-139065000D01*
X121629300Y-141605000D02*
X124169300Y-139065000D01*
X120429000Y-141605000D02*
X121629300Y-141605000D01*
X108395000Y-135833000D02*
X108068000Y-135833000D01*
X108068000Y-137433000D02*
X106967700Y-137433000D01*
X108068000Y-135833000D02*
X107092800Y-135833000D01*
X107092800Y-135833000D02*
X106967700Y-135833000D01*
X106967700Y-135833000D02*
X106967700Y-137433000D01*
X96393000Y-134620000D02*
X96993200Y-134620000D01*
X98997800Y-132015200D02*
X98997800Y-134620000D01*
X99391100Y-131621900D02*
X98997800Y-132015200D01*
X103994200Y-131621900D02*
X99391100Y-131621900D01*
X105251400Y-132879100D02*
X103994200Y-131621900D01*
X105251400Y-134116700D02*
X105251400Y-132879100D01*
X106967700Y-135833000D02*
X105251400Y-134116700D01*
X96993200Y-134620000D02*
X98997800Y-134620000D01*
X98997800Y-134620000D02*
X100076000Y-134620000D01*
X115189000Y-146050000D02*
X116389300Y-146050000D01*
X126511100Y-147300900D02*
X127635000Y-146177000D01*
X117265100Y-147300900D02*
X126511100Y-147300900D01*
X116389300Y-146425100D02*
X117265100Y-147300900D01*
X116389300Y-146050000D02*
X116389300Y-146425100D01*
X134904400Y-140309400D02*
X134874000Y-140279000D01*
X134904400Y-144939200D02*
X134904400Y-140309400D01*
X133666600Y-146177000D02*
X134904400Y-144939200D01*
X127635000Y-146177000D02*
X133666600Y-146177000D01*
X126158400Y-133085300D02*
X126528700Y-132715000D01*
X124349100Y-133085300D02*
X126158400Y-133085300D01*
X127729000Y-132715000D02*
X126528700Y-132715000D01*
X129413000Y-128778000D02*
X130937000Y-130302000D01*
X127508000Y-128778000D02*
X129413000Y-128778000D01*
X122179400Y-135255000D02*
X120429000Y-135255000D01*
X124349100Y-133085300D02*
X122179400Y-135255000D01*
X116468000Y-136633000D02*
X117349500Y-136633000D01*
X119228700Y-138512200D02*
X119228700Y-141605000D01*
X117349500Y-136633000D02*
X119228700Y-138512200D01*
D20*
%TO.N,Net-(C1-Pad1)*%
X106992700Y-138322700D02*
X106992700Y-139033000D01*
X103836300Y-135166300D02*
X106992700Y-138322700D01*
X103505000Y-135166300D02*
X103836300Y-135166300D01*
X108068000Y-139033000D02*
X106992700Y-139033000D01*
X103505000Y-133892400D02*
X103505000Y-135166300D01*
X103505000Y-133892400D02*
X103505000Y-133841000D01*
X100708700Y-132570000D02*
X100076000Y-132570000D01*
X101979700Y-133841000D02*
X100708700Y-132570000D01*
X103505000Y-133841000D02*
X101979700Y-133841000D01*
%TO.N,Net-(C2-Pad1)*%
X100709700Y-138811000D02*
X100076000Y-138811000D01*
X101979700Y-137541000D02*
X100709700Y-138811000D01*
X103505000Y-137541000D02*
X101979700Y-137541000D01*
X104471700Y-139833000D02*
X103505000Y-138866300D01*
X108068000Y-139833000D02*
X104471700Y-139833000D01*
X103505000Y-137541000D02*
X103505000Y-138866300D01*
%TO.N,Net-(D1-Pad1)*%
X123063000Y-146177000D02*
X125585000Y-146177000D01*
%TO.N,/SCK*%
X120429000Y-140335000D02*
X121604300Y-140335000D01*
X121847100Y-140092200D02*
X121886800Y-140092200D01*
X121604300Y-140335000D02*
X121847100Y-140092200D01*
X119253700Y-133985000D02*
X118972600Y-133985000D01*
X119841400Y-133985000D02*
X119253700Y-133985000D01*
X119841400Y-133985000D02*
X120429000Y-133985000D01*
X133604000Y-132866700D02*
X133604000Y-133279000D01*
X132712600Y-131975300D02*
X133604000Y-132866700D01*
X123614000Y-131975300D02*
X132712600Y-131975300D01*
X121604300Y-133985000D02*
X123614000Y-131975300D01*
X120429000Y-133985000D02*
X121604300Y-133985000D01*
X117537400Y-129953300D02*
X118712700Y-128778000D01*
X114472400Y-129953300D02*
X117537400Y-129953300D01*
X112668000Y-131757700D02*
X114472400Y-129953300D01*
X112668000Y-132833000D02*
X112668000Y-131757700D01*
X119888000Y-128778000D02*
X118712700Y-128778000D01*
X121013000Y-144830100D02*
X121013000Y-146177000D01*
%TO.N,/D2*%
X107592700Y-132833000D02*
X107181500Y-133244200D01*
X109468000Y-132833000D02*
X107592700Y-132833000D01*
%TO.N,/D3*%
X108068000Y-134233000D02*
X106992700Y-134233000D01*
X106992700Y-134233000D02*
X106698600Y-134233000D01*
%TO.N,/D4*%
X108068000Y-135033000D02*
X109428500Y-135033000D01*
%TO.N,/D5*%
X106204300Y-145572000D02*
X106204300Y-146050000D01*
X109468000Y-142308300D02*
X106204300Y-145572000D01*
X109468000Y-141233000D02*
X109468000Y-142308300D01*
X105029000Y-146050000D02*
X106204300Y-146050000D01*
%TO.N,/D6*%
X110135400Y-142308300D02*
X107569000Y-144874700D01*
X110268000Y-142308300D02*
X110135400Y-142308300D01*
X107569000Y-146050000D02*
X107569000Y-144874700D01*
X110268000Y-141233000D02*
X110268000Y-142308300D01*
%TO.N,/D7*%
X111068000Y-143915700D02*
X110109000Y-144874700D01*
X111068000Y-141233000D02*
X111068000Y-143915700D01*
X110109000Y-146050000D02*
X110109000Y-144874700D01*
%TO.N,/D8*%
X111868000Y-144093700D02*
X112649000Y-144874700D01*
X111868000Y-141233000D02*
X111868000Y-144093700D01*
X112649000Y-146050000D02*
X112649000Y-144874700D01*
%TO.N,/RX*%
X105315300Y-128360600D02*
X105315300Y-128728000D01*
X106123200Y-127552700D02*
X105315300Y-128360600D01*
X107346500Y-127552700D02*
X106123200Y-127552700D01*
X111068000Y-131274200D02*
X107346500Y-127552700D01*
X111068000Y-132833000D02*
X111068000Y-131274200D01*
X104140000Y-128728000D02*
X105315300Y-128728000D01*
%TO.N,/TX*%
X107855300Y-129345000D02*
X107855300Y-128728000D01*
X110268000Y-131757700D02*
X107855300Y-129345000D01*
X110268000Y-132833000D02*
X110268000Y-131757700D01*
X106680000Y-128728000D02*
X107855300Y-128728000D01*
%TO.N,/SDA*%
X122428000Y-128778000D02*
X122428000Y-129953300D01*
X121604300Y-132715000D02*
X122822100Y-131497200D01*
X122428000Y-131103100D02*
X122822100Y-131497200D01*
X122428000Y-129953300D02*
X122428000Y-131103100D01*
X134874000Y-132905700D02*
X134874000Y-133279000D01*
X133465500Y-131497200D02*
X134874000Y-132905700D01*
X122822100Y-131497200D02*
X133465500Y-131497200D01*
X120429000Y-132715000D02*
X121604300Y-132715000D01*
X118296400Y-131757700D02*
X119253700Y-132715000D01*
X113468000Y-131757700D02*
X118296400Y-131757700D01*
X113468000Y-132833000D02*
X113468000Y-131757700D01*
X120429000Y-132715000D02*
X119253700Y-132715000D01*
X120429000Y-138124700D02*
X120429000Y-139065000D01*
%TO.N,/MISO*%
X95028300Y-140067300D02*
X95028300Y-139700000D01*
X99517000Y-144556000D02*
X95028300Y-140067300D01*
X102730500Y-144556000D02*
X99517000Y-144556000D01*
X103759000Y-145584500D02*
X102730500Y-144556000D01*
X103759000Y-146444200D02*
X103759000Y-145584500D01*
X104540200Y-147225400D02*
X103759000Y-146444200D01*
X113159700Y-147225400D02*
X104540200Y-147225400D01*
X113988300Y-146396800D02*
X113159700Y-147225400D01*
X113988300Y-145335900D02*
X113988300Y-146396800D01*
X115068000Y-144256200D02*
X113988300Y-145335900D01*
X115068000Y-141233000D02*
X115068000Y-144256200D01*
X93853000Y-139700000D02*
X95028300Y-139700000D01*
%TO.N,/MOSI*%
X114268000Y-141233000D02*
X114268000Y-140157700D01*
X114192700Y-140157700D02*
X113908600Y-139873600D01*
X114268000Y-140157700D02*
X114192700Y-140157700D01*
%TO.N,/RESET*%
X95028300Y-134252700D02*
X95028300Y-134620000D01*
X98391500Y-130889500D02*
X95028300Y-134252700D01*
X101170600Y-130889500D02*
X98391500Y-130889500D01*
X102964600Y-129095500D02*
X101170600Y-130889500D01*
X102964600Y-128179200D02*
X102964600Y-129095500D01*
X104078800Y-127065000D02*
X102964600Y-128179200D01*
X107530100Y-127065000D02*
X104078800Y-127065000D01*
X111868000Y-131402900D02*
X107530100Y-127065000D01*
X111868000Y-132833000D02*
X111868000Y-131402900D01*
X93853000Y-134620000D02*
X94440700Y-134620000D01*
X94440700Y-134620000D02*
X95028300Y-134620000D01*
X99045800Y-139576800D02*
X101074000Y-141605000D01*
X99045800Y-138124700D02*
X99045800Y-139576800D01*
X96811100Y-135890000D02*
X99045800Y-138124700D01*
X95710700Y-135890000D02*
X96811100Y-135890000D01*
X94440700Y-134620000D02*
X95710700Y-135890000D01*
%TO.N,/ADDS2*%
X127729000Y-135255000D02*
X126553700Y-135255000D01*
X126553700Y-137175300D02*
X126553700Y-135255000D01*
X128145900Y-141605000D02*
X127729000Y-141605000D01*
X128904400Y-140846500D02*
X128145900Y-141605000D01*
X128904400Y-138596600D02*
X128904400Y-140846500D01*
X127483100Y-137175300D02*
X128904400Y-138596600D01*
X126553700Y-137175300D02*
X127483100Y-137175300D01*
X119441200Y-137175300D02*
X126553700Y-137175300D01*
X117543300Y-135277400D02*
X119441200Y-137175300D01*
X117543300Y-134233000D02*
X117543300Y-135277400D01*
X116468000Y-134233000D02*
X117543300Y-134233000D01*
%TO.N,/ADDS1*%
X129382200Y-137002900D02*
X128904300Y-136525000D01*
X129382200Y-141638700D02*
X129382200Y-137002900D01*
X128145900Y-142875000D02*
X129382200Y-141638700D01*
X127729000Y-142875000D02*
X128145900Y-142875000D01*
X127729000Y-136525000D02*
X128904300Y-136525000D01*
X126228600Y-142549900D02*
X126553700Y-142875000D01*
X125774000Y-142549900D02*
X126228600Y-142549900D01*
X127729000Y-142875000D02*
X126553700Y-142875000D01*
X116468000Y-135033000D02*
X115392700Y-135033000D01*
X115392700Y-135033000D02*
X115095900Y-135033000D01*
%TO.N,Net-(U3-Pad1)*%
X131064000Y-142030700D02*
X131064000Y-140279000D01*
X130429000Y-142665700D02*
X131064000Y-142030700D01*
X130429000Y-143891000D02*
X130429000Y-142665700D01*
%TO.N,Net-(U3-Pad2)*%
X132478700Y-140423700D02*
X132334000Y-140279000D01*
X132478700Y-143891000D02*
X132478700Y-140423700D01*
X133679000Y-143891000D02*
X132478700Y-143891000D01*
%TD*%
M02*
