%TF.GenerationSoftware,KiCad,Pcbnew,(5.1.6-0-10_14)*%
%TF.CreationDate,2020-11-29T14:34:25+01:00*%
%TF.ProjectId,ArduinoClone,41726475-696e-46f4-936c-6f6e652e6b69,v1.0*%
%TF.SameCoordinates,Original*%
%TF.FileFunction,Soldermask,Top*%
%TF.FilePolarity,Negative*%
%FSLAX46Y46*%
G04 Gerber Fmt 4.6, Leading zero omitted, Abs format (unit mm)*
G04 Created by KiCad (PCBNEW (5.1.6-0-10_14)) date 2020-11-29 14:34:25*
%MOMM*%
%LPD*%
G01*
G04 APERTURE LIST*
%ADD10O,1.800000X1.800000*%
%ADD11R,1.800000X1.800000*%
%ADD12R,1.800000X0.750000*%
%ADD13R,0.650000X1.600000*%
%ADD14R,1.600000X0.650000*%
%ADD15R,1.850000X1.900000*%
%ADD16R,2.500000X2.100000*%
G04 APERTURE END LIST*
D10*
%TO.C,BT1*%
X112141000Y-128778000D03*
D11*
X114681000Y-128778000D03*
%TD*%
%TO.C,C1*%
G36*
G01*
X99597738Y-131945000D02*
X100554262Y-131945000D01*
G75*
G02*
X100826000Y-132216738I0J-271738D01*
G01*
X100826000Y-132923262D01*
G75*
G02*
X100554262Y-133195000I-271738J0D01*
G01*
X99597738Y-133195000D01*
G75*
G02*
X99326000Y-132923262I0J271738D01*
G01*
X99326000Y-132216738D01*
G75*
G02*
X99597738Y-131945000I271738J0D01*
G01*
G37*
G36*
G01*
X99597738Y-133995000D02*
X100554262Y-133995000D01*
G75*
G02*
X100826000Y-134266738I0J-271738D01*
G01*
X100826000Y-134973262D01*
G75*
G02*
X100554262Y-135245000I-271738J0D01*
G01*
X99597738Y-135245000D01*
G75*
G02*
X99326000Y-134973262I0J271738D01*
G01*
X99326000Y-134266738D01*
G75*
G02*
X99597738Y-133995000I271738J0D01*
G01*
G37*
%TD*%
%TO.C,C2*%
G36*
G01*
X100554262Y-137386000D02*
X99597738Y-137386000D01*
G75*
G02*
X99326000Y-137114262I0J271738D01*
G01*
X99326000Y-136407738D01*
G75*
G02*
X99597738Y-136136000I271738J0D01*
G01*
X100554262Y-136136000D01*
G75*
G02*
X100826000Y-136407738I0J-271738D01*
G01*
X100826000Y-137114262D01*
G75*
G02*
X100554262Y-137386000I-271738J0D01*
G01*
G37*
G36*
G01*
X100554262Y-139436000D02*
X99597738Y-139436000D01*
G75*
G02*
X99326000Y-139164262I0J271738D01*
G01*
X99326000Y-138457738D01*
G75*
G02*
X99597738Y-138186000I271738J0D01*
G01*
X100554262Y-138186000D01*
G75*
G02*
X100826000Y-138457738I0J-271738D01*
G01*
X100826000Y-139164262D01*
G75*
G02*
X100554262Y-139436000I-271738J0D01*
G01*
G37*
%TD*%
%TO.C,C3*%
G36*
G01*
X131562000Y-129823738D02*
X131562000Y-130780262D01*
G75*
G02*
X131290262Y-131052000I-271738J0D01*
G01*
X130583738Y-131052000D01*
G75*
G02*
X130312000Y-130780262I0J271738D01*
G01*
X130312000Y-129823738D01*
G75*
G02*
X130583738Y-129552000I271738J0D01*
G01*
X131290262Y-129552000D01*
G75*
G02*
X131562000Y-129823738I0J-271738D01*
G01*
G37*
G36*
G01*
X133612000Y-129823738D02*
X133612000Y-130780262D01*
G75*
G02*
X133340262Y-131052000I-271738J0D01*
G01*
X132633738Y-131052000D01*
G75*
G02*
X132362000Y-130780262I0J271738D01*
G01*
X132362000Y-129823738D01*
G75*
G02*
X132633738Y-129552000I271738J0D01*
G01*
X133340262Y-129552000D01*
G75*
G02*
X133612000Y-129823738I0J-271738D01*
G01*
G37*
%TD*%
%TO.C,D1*%
G36*
G01*
X123688000Y-145698738D02*
X123688000Y-146655262D01*
G75*
G02*
X123416262Y-146927000I-271738J0D01*
G01*
X122709738Y-146927000D01*
G75*
G02*
X122438000Y-146655262I0J271738D01*
G01*
X122438000Y-145698738D01*
G75*
G02*
X122709738Y-145427000I271738J0D01*
G01*
X123416262Y-145427000D01*
G75*
G02*
X123688000Y-145698738I0J-271738D01*
G01*
G37*
G36*
G01*
X121638000Y-145698738D02*
X121638000Y-146655262D01*
G75*
G02*
X121366262Y-146927000I-271738J0D01*
G01*
X120659738Y-146927000D01*
G75*
G02*
X120388000Y-146655262I0J271738D01*
G01*
X120388000Y-145698738D01*
G75*
G02*
X120659738Y-145427000I271738J0D01*
G01*
X121366262Y-145427000D01*
G75*
G02*
X121638000Y-145698738I0J-271738D01*
G01*
G37*
%TD*%
%TO.C,J1*%
X97409000Y-146050000D03*
D10*
X99949000Y-146050000D03*
X102489000Y-146050000D03*
X105029000Y-146050000D03*
X107569000Y-146050000D03*
X110109000Y-146050000D03*
X112649000Y-146050000D03*
X115189000Y-146050000D03*
X117729000Y-146050000D03*
%TD*%
D11*
%TO.C,J2*%
X99060000Y-128728000D03*
D10*
X101600000Y-128728000D03*
X104140000Y-128728000D03*
X106680000Y-128728000D03*
%TD*%
%TO.C,J3*%
X119888000Y-128778000D03*
X122428000Y-128778000D03*
X124968000Y-128778000D03*
D11*
X127508000Y-128778000D03*
%TD*%
%TO.C,J4*%
X93853000Y-139700000D03*
D10*
X96393000Y-139700000D03*
X93853000Y-137160000D03*
X96393000Y-137160000D03*
X93853000Y-134620000D03*
X96393000Y-134620000D03*
%TD*%
%TO.C,R1*%
G36*
G01*
X124960000Y-146655262D02*
X124960000Y-145698738D01*
G75*
G02*
X125231738Y-145427000I271738J0D01*
G01*
X125938262Y-145427000D01*
G75*
G02*
X126210000Y-145698738I0J-271738D01*
G01*
X126210000Y-146655262D01*
G75*
G02*
X125938262Y-146927000I-271738J0D01*
G01*
X125231738Y-146927000D01*
G75*
G02*
X124960000Y-146655262I0J271738D01*
G01*
G37*
G36*
G01*
X127010000Y-146655262D02*
X127010000Y-145698738D01*
G75*
G02*
X127281738Y-145427000I271738J0D01*
G01*
X127988262Y-145427000D01*
G75*
G02*
X128260000Y-145698738I0J-271738D01*
G01*
X128260000Y-146655262D01*
G75*
G02*
X127988262Y-146927000I-271738J0D01*
G01*
X127281738Y-146927000D01*
G75*
G02*
X127010000Y-146655262I0J271738D01*
G01*
G37*
%TD*%
%TO.C,R2*%
G36*
G01*
X102499000Y-142083262D02*
X102499000Y-141126738D01*
G75*
G02*
X102770738Y-140855000I271738J0D01*
G01*
X103477262Y-140855000D01*
G75*
G02*
X103749000Y-141126738I0J-271738D01*
G01*
X103749000Y-142083262D01*
G75*
G02*
X103477262Y-142355000I-271738J0D01*
G01*
X102770738Y-142355000D01*
G75*
G02*
X102499000Y-142083262I0J271738D01*
G01*
G37*
G36*
G01*
X100449000Y-142083262D02*
X100449000Y-141126738D01*
G75*
G02*
X100720738Y-140855000I271738J0D01*
G01*
X101427262Y-140855000D01*
G75*
G02*
X101699000Y-141126738I0J-271738D01*
G01*
X101699000Y-142083262D01*
G75*
G02*
X101427262Y-142355000I-271738J0D01*
G01*
X100720738Y-142355000D01*
G75*
G02*
X100449000Y-142083262I0J271738D01*
G01*
G37*
%TD*%
D12*
%TO.C,U1*%
X120429000Y-142875000D03*
X120429000Y-141605000D03*
X120429000Y-140335000D03*
X120429000Y-139065000D03*
X127729000Y-139065000D03*
X127729000Y-140335000D03*
X127729000Y-141605000D03*
X127729000Y-142875000D03*
%TD*%
%TO.C,U2*%
X127729000Y-136525000D03*
X127729000Y-135255000D03*
X127729000Y-133985000D03*
X127729000Y-132715000D03*
X120429000Y-132715000D03*
X120429000Y-133985000D03*
X120429000Y-135255000D03*
X120429000Y-136525000D03*
%TD*%
%TO.C,U3*%
G36*
G01*
X131239000Y-141279000D02*
X130889000Y-141279000D01*
G75*
G02*
X130714000Y-141104000I0J175000D01*
G01*
X130714000Y-139454000D01*
G75*
G02*
X130889000Y-139279000I175000J0D01*
G01*
X131239000Y-139279000D01*
G75*
G02*
X131414000Y-139454000I0J-175000D01*
G01*
X131414000Y-141104000D01*
G75*
G02*
X131239000Y-141279000I-175000J0D01*
G01*
G37*
G36*
G01*
X132509000Y-141279000D02*
X132159000Y-141279000D01*
G75*
G02*
X131984000Y-141104000I0J175000D01*
G01*
X131984000Y-139454000D01*
G75*
G02*
X132159000Y-139279000I175000J0D01*
G01*
X132509000Y-139279000D01*
G75*
G02*
X132684000Y-139454000I0J-175000D01*
G01*
X132684000Y-141104000D01*
G75*
G02*
X132509000Y-141279000I-175000J0D01*
G01*
G37*
G36*
G01*
X133779000Y-141279000D02*
X133429000Y-141279000D01*
G75*
G02*
X133254000Y-141104000I0J175000D01*
G01*
X133254000Y-139454000D01*
G75*
G02*
X133429000Y-139279000I175000J0D01*
G01*
X133779000Y-139279000D01*
G75*
G02*
X133954000Y-139454000I0J-175000D01*
G01*
X133954000Y-141104000D01*
G75*
G02*
X133779000Y-141279000I-175000J0D01*
G01*
G37*
G36*
G01*
X135049000Y-141279000D02*
X134699000Y-141279000D01*
G75*
G02*
X134524000Y-141104000I0J175000D01*
G01*
X134524000Y-139454000D01*
G75*
G02*
X134699000Y-139279000I175000J0D01*
G01*
X135049000Y-139279000D01*
G75*
G02*
X135224000Y-139454000I0J-175000D01*
G01*
X135224000Y-141104000D01*
G75*
G02*
X135049000Y-141279000I-175000J0D01*
G01*
G37*
G36*
G01*
X135049000Y-134279000D02*
X134699000Y-134279000D01*
G75*
G02*
X134524000Y-134104000I0J175000D01*
G01*
X134524000Y-132454000D01*
G75*
G02*
X134699000Y-132279000I175000J0D01*
G01*
X135049000Y-132279000D01*
G75*
G02*
X135224000Y-132454000I0J-175000D01*
G01*
X135224000Y-134104000D01*
G75*
G02*
X135049000Y-134279000I-175000J0D01*
G01*
G37*
G36*
G01*
X133779000Y-134279000D02*
X133429000Y-134279000D01*
G75*
G02*
X133254000Y-134104000I0J175000D01*
G01*
X133254000Y-132454000D01*
G75*
G02*
X133429000Y-132279000I175000J0D01*
G01*
X133779000Y-132279000D01*
G75*
G02*
X133954000Y-132454000I0J-175000D01*
G01*
X133954000Y-134104000D01*
G75*
G02*
X133779000Y-134279000I-175000J0D01*
G01*
G37*
G36*
G01*
X132509000Y-134279000D02*
X132159000Y-134279000D01*
G75*
G02*
X131984000Y-134104000I0J175000D01*
G01*
X131984000Y-132454000D01*
G75*
G02*
X132159000Y-132279000I175000J0D01*
G01*
X132509000Y-132279000D01*
G75*
G02*
X132684000Y-132454000I0J-175000D01*
G01*
X132684000Y-134104000D01*
G75*
G02*
X132509000Y-134279000I-175000J0D01*
G01*
G37*
G36*
G01*
X131239000Y-134279000D02*
X130889000Y-134279000D01*
G75*
G02*
X130714000Y-134104000I0J175000D01*
G01*
X130714000Y-132454000D01*
G75*
G02*
X130889000Y-132279000I175000J0D01*
G01*
X131239000Y-132279000D01*
G75*
G02*
X131414000Y-132454000I0J-175000D01*
G01*
X131414000Y-134104000D01*
G75*
G02*
X131239000Y-134279000I-175000J0D01*
G01*
G37*
%TD*%
D13*
%TO.C,U4*%
X109468000Y-141233000D03*
D14*
X108068000Y-134233000D03*
X108068000Y-135033000D03*
X108068000Y-135833000D03*
X108068000Y-136633000D03*
X108068000Y-137433000D03*
X108068000Y-138233000D03*
X108068000Y-139033000D03*
X108068000Y-139833000D03*
D13*
X110268000Y-141233000D03*
X111068000Y-141233000D03*
X111868000Y-141233000D03*
X112668000Y-141233000D03*
X113468000Y-141233000D03*
X114268000Y-141233000D03*
X115068000Y-141233000D03*
D14*
X116468000Y-139833000D03*
X116468000Y-139033000D03*
X116468000Y-138233000D03*
X116468000Y-137433000D03*
X116468000Y-136633000D03*
X116468000Y-135833000D03*
X116468000Y-135033000D03*
X116468000Y-134233000D03*
D13*
X115068000Y-132833000D03*
X114268000Y-132833000D03*
X113468000Y-132833000D03*
X112668000Y-132833000D03*
X111868000Y-132833000D03*
X111068000Y-132833000D03*
X110268000Y-132833000D03*
X109468000Y-132833000D03*
%TD*%
D15*
%TO.C,Y1*%
X133679000Y-143891000D03*
X130429000Y-143891000D03*
%TD*%
D16*
%TO.C,Y2*%
X103505000Y-133841000D03*
X103505000Y-137541000D03*
%TD*%
M02*
